# xmcd
#
# Track frame offsets: 
#        225
#        14887
#        29019
#        42808
#        72926
#        94205
#        117198
#        129091
#        145635
#        159054
#        178869
#
# Disc length: 2539 seconds
#
# Revision: 0
# Processed by: cddbd v1.4PL0 Copyright (c) Steve Scherf et al.
# Submitted via: ExactAudioCopy v0.90b4
#
DISCID=9009e80b
DTITLE=Motor City Josh and the Big Three - Stringer Full Of Blues VOL 
DTITLE=1
DYEAR=2002
DGENRE=Blues
TTITLE0=No Fish
TTITLE1=Blues Playin' Bass Man
TTITLE2=Catfish BBQ
TTITLE3=The Skillet
TTITLE4=True Fishin' Man
TTITLE5=Early Worm
TTITLE6=Gonna Do Some Fishin' Baby
TTITLE7=Goin' Fishin'
TTITLE8=New Fishin' Lure
TTITLE9=Stringer Full Of Blues
TTITLE10=Monster Bass
EXTD=
EXTT0=
EXTT1=
EXTT2=
EXTT3=
EXTT4=
EXTT5=
EXTT6=
EXTT7=
EXTT8=
EXTT9=
EXTT10=
PLAYORDER=
